<svg width="100" height="94" viewBox="0 0 100 94" fill="none" xmlns="http://www.w3.org/2000/svg">
<path d="M93.1065 3.86024C77.9718 21.6487 62.8371 39.437 47.7023 57.2255C41.7812 50.5755 35.8599 43.9255 29.9387 37.2754C26.9986 33.9734 22.1877 38.8543 25.1157 42.1427C31.859 49.7159 38.6022 57.2892 45.3456 64.8627C46.5116 66.1722 49.0131 66.2208 50.1686 64.8627C66.0889 46.1509 82.0091 27.4392 97.9294 8.72744C100.775 5.38283 95.9718 0.492497 93.1065 3.86024Z" fill="#3D81E6"/>
<path d="M87.4417 33.8518C93.2188 52.6535 85.7339 73.1295 68.0334 82.2112C52.2229 90.3234 32.3213 86.3938 20.6836 72.8997C9.01321 59.3676 7.83978 39.0495 17.9479 24.2707C29.7384 7.03198 52.5277 2.63986 70.3674 12.7211C74.2016 14.8877 77.6444 8.94431 73.81 6.77744C41.6938 -11.3712 0.43184 13.621 4.44199 51.5698C8.1343 86.5104 49.2428 105.388 77.5159 84.3543C93.7576 72.2711 99.9415 51.2979 94.0187 32.0219C92.7228 27.8042 86.1364 29.604 87.4417 33.8518Z" fill="#3D81E6"/>
</svg>
