<svg width="100" height="94" viewBox="0 0 100 94" fill="none" xmlns="http://www.w3.org/2000/svg">
<path fill-rule="evenodd" clip-rule="evenodd" d="M49.9996 87.3293C72.3257 87.3293 90.4246 69.0494 90.4246 46.5C90.4246 23.9506 72.3257 5.67073 49.9996 5.67073C27.6734 5.67073 9.57455 23.9506 9.57455 46.5C9.57455 69.0494 27.6734 87.3293 49.9996 87.3293ZM49.9996 93C75.4265 93 96.0392 72.1812 96.0392 46.5C96.0392 20.8188 75.4265 0 49.9996 0C24.5726 0 3.95996 20.8188 3.95996 46.5C3.95996 72.1812 24.5726 93 49.9996 93Z" fill="#D84F50"/>
<path fill-rule="evenodd" clip-rule="evenodd" d="M46.3929 46.5L28.7124 28.6427L32.3191 25L49.9995 42.8573L67.68 25L71.2867 28.6428L53.6062 46.5L71.2867 64.3572L67.68 68L49.9995 50.1427L32.3191 68L28.7124 64.3573L46.3929 46.5Z" fill="#D84F50"/>
</svg>
